<svg xmlns="http://www.w3.org/2000/svg" xmlns:xlink="http://www.w3.org/1999/xlink"><defs><clipPath id="clip0"><path fill="#fff" transform="translate(.182) scale(4.16667)" d="M0 0h172.8v79.607H0z"/></clipPath></defs><symbol id="icon__arrow_left" viewBox="0 0 32 32"><path d="M13.188 7.174l-8.5 8.5-.688.72.688.718 8.5 8.5 1.437-1.438-6.781-6.78h20.062v-2H7.844l6.781-6.782-1.438-1.438z"/></symbol><symbol id="icon__arrow_right" viewBox="0 0 32 32"><path d="M18.719 7.174L17.28 8.612l6.782 6.781H4v2h20.063l-6.782 6.781 1.438 1.438 8.5-8.5.687-.719-.687-.719-8.5-8.5z"/></symbol><symbol id="icon__cross" viewBox="0 0 32 32"><path d="M7.438 6L6 7.438l8.781 8.78L6 25l1.438 1.438 8.78-8.782L25 26.438 26.438 25l-8.782-8.781 8.782-8.782L25 6l-8.781 8.781L7.437 6z"/></symbol><symbol id="icon__instagram" viewBox="0 0 32 33"><path d="M20 7.174h-8c-2.757 0-5 2.243-5 5v8c0 2.757 2.243 5 5 5h8c2.757 0 5-2.243 5-5v-8c0-2.757-2.243-5-5-5zm3 13c0 1.654-1.346 3-3 3h-8c-1.654 0-3-1.346-3-3v-8c0-1.654 1.346-3 3-3h8c1.654 0 3 1.346 3 3v8z"/><path d="M16 11.174c-2.757 0-5 2.243-5 5s2.243 5 5 5 5-2.243 5-5-2.243-5-5-5zm0 8c-1.654 0-3-1.346-3-3s1.346-3 3-3 3 1.346 3 3-1.346 3-3 3zM21 12.174a1 1 0 100-2 1 1 0 000 2z"/></symbol><symbol id="icon__vk" viewBox="0 0 32 33"><path d="M24.603 18.499a9.001 9.001 0 012.16 2.4c.73 1.15-.8 1.25-.8 1.25h-2.91a2.17 2.17 0 01-1.46-.43c-1.1-.72-2.15-2.59-3-2.35-.85.24-.8 1.92-.8 1.92a.85.85 0 01-.15.58c-.172.139-.38.222-.6.24h-1.27a7.69 7.69 0 01-5.47-2.35c-2.78-2.77-5.27-8.3-5.27-8.3s-.1-.35.05-.53c.15-.18.65-.19.65-.19h3.11c.177.029.347.094.5.19.125.104.227.234.3.38a18.2 18.2 0 001.15 2.3c1.31 2.17 1.91 2.68 2.36 2.45.65-.34.45-3.07.45-3.07a2.831 2.831 0 00-.3-1.44 1.59 1.59 0 00-1-.48c-.18 0 .13-.4.5-.58a7.527 7.527 0 012.76-.29 5.996 5.996 0 011.56.15c1.08.25.7 1.23.7 3.55 0 .74-.16 1.76.4 2.11.24.15.84 0 2.31-2.35.467-.784.872-1.603 1.21-2.45a.997.997 0 01.3-.34.998.998 0 01.45-.1h3.32s1-.14 1.16.29c.16.43-.46 1.5-1.76 3.22-2.22 2.82-2.45 2.59-.61 4.22z"/></symbol><symbol id="kbb-logo" viewBox="0 0 721 332"><g clip-path="url(#clip0)" fill-rule="evenodd" clip-rule="evenodd"><path d="M388.791 65.6c-5.732.186-5.768-5.52-3.282-9.222 3.268-4.867 4.409-3.374 4.778-5.017l1.02-4.717c1.258-4.909 3.331-9.551 6.057-13.389 6.389-8.99 13.996-13.877 24.781-17.407 22.403-7.333 57.307-1.503 75.11 11.026 24.506 17.244 18.674 39.3 19.355 41.783.057.205 3.393 2.936 3.862 8.085.435 4.782-2.014 5.82-5.661 5.772-.322 1.25-.795 2.038-1.298 2.913 2.542.86 5.6-.102 5.526 3.345-.033 1.53-.598 6.278-.995 7.712-1.128 4.074-7.287.695-14.271.535-.335 4.562-1.871 10.31-1.781 14.792 5.133 1.812 18.792-.351 27.177 11.487 3.566 5.035 3.073 8.875 2.235 15.579l-4.538 34.181c-.851 6.951-.996 10.083-4.809 14.445-5.073 5.802-13.608 7.778-21.772 6.713-2.045-.267-6.972-1.312-8.732-.916-.812 1.473-.556 8.655-.38 10.701.535 6.191 2.725 11.071 6.122 15.904 1.155 1.644 5.271 5.794 1.044 6.508-2.189.37-16.518-1.971-19.801-2.409l-96.821-12.881c-3.321-.448-6.554-.869-9.878-1.323-2.526-.344-7.944-.24-7.728-3.166.09-1.218 1.619-2.094 2.78-2.919 2.903-2.066 6.134-5.31 8.084-8.313 5.608-8.638 7.319-23.43 8.734-35.236 2.288-19.106 5.142-39.067 7.7-58.303.845-6.357 1.992-13.121 2.553-19.487-2.513-.214-5.087-.644-7.581-.968-3.21-.417-5.146-.136-4.772-3.792 1.101-10.776 1.187-9.16 7.529-8.573l-.347-3.442zM264.017 90.553c.921-10.134 2.039-9.453 9.055-8.412 2.378.353 5.809.498 6.528 2.4.772 2.041-.521 5.899-.597 8.169.976.46 2.498.54 3.664.8 7.642 1.698 13.498 6.744 15.703 14.91 1.462 5.419.717 10.298-.087 15.761-.746 5.074-1.484 10.146-2.242 15.25-1.049 7.068-2.702 22.589-5.993 28.961-1.661 3.216-5.547 6.437-9.189 8.297-4.583 2.341-9.12 2.752-14.851 2.224-1.978 8.705.581 10.172-8.818 8.745-9.17-1.392-7.113-1.561-6.175-11.062-6.716-.681-13.098-4.84-16.328-9.945-4.835-7.641-3.379-12.887-2.065-21.574.763-5.045 1.533-10.017 2.266-15.024a2511.17 2511.17 0 012.292-15.232c1.409-9.238 2.431-17.3 12.336-22.397 6.317-3.25 7.397-2.064 14.501-1.87zm108.846-1.779l.47.12-.47-.12zm-254.277 3.37c5.599-.721 11.376.445 15.269 3.068 3.591 2.42 5.907 5.72 7.704 10.884.782 2.248 1.269 5.17 1.825 7.574 1.964 8.484 4.288 15.282.528 22.891-7.542 15.261-21.222 8.41-20.847 16.034.073 1.493 4.318 19.585 5.016 22.74.283 1.28.626 2.583.649 3.958.031 1.941-.318 2.165-1.837 2.778-2.176.877-5 1.455-7.493 1.908-3.588.651-4.649.379-5.505-2.972-1.265-4.953-2.275-10.158-3.409-15.172-2.284-10.095-4.555-20.094-6.765-30.197-2.215-10.127-4.493-20.113-6.772-30.204-2.003-8.871-2.038-8.126 6.464-10.05 4.756-1.076 10.374-2.62 15.173-3.24zm198.058 6.373c1.398-.546 28.161 4.853 31.761 5.539 9.582 1.824 10.048.813 8.42 8.939-.428 2.138-.656 6.224-2.628 6.739-4.343 1.131-11.459-4.525-13.478 3.128-1.126 4.27-3.615 18.781-4.532 23.671l-7.419 39.398c-1.067 5.968-1.986 5.623-12.2 3.316-3.554-.803-3.471-2.115-2.722-5.809 2.132-10.505 3.904-21.09 5.987-31.643a1063.1 1063.1 0 002.974-15.793c.946-5.209 2.181-10.62 2.935-15.822 1.492-10.295-13.045-3.132-12.199-10.963.277-2.563 1.14-9.933 3.101-10.7zm-276.08 64.818c-1.418-3.694-6.725-14.716-8.717-18.99-1.446-3.102-2.945-6.319-4.325-9.456-3.43-7.794-4.58-7.553 4.488-11.43 1.501-.643 3.526-1.876 4.988-.67 2.644 2.183 6.748 17.74 10.32 17.068 1.839-.346 1.898-3.141 1.968-4.94.086-2.198.182-4.371.264-6.567.092-2.507.083-11.224 1.03-12.774.902-1.475 6.72-4.046 8.845-4.927 6.442-2.668 5.6-1.699 5.426 5.238l-.884 26.679c-.099 2.166-.534 4.3.364 6.23.379.814.927 1.57 1.45 2.049 2.304 2.11 3.786 3.249 6.281 5.738.325.324.576.514.93.826l28.371 26.715c2.534 2.487 4.031 3.585.322 5.747-1.372.799-3.062 1.515-4.573 2.203-7.943 3.617-8.045 3.404-13.865-2.287a133.398 133.398 0 00-1.781-1.718c-.6-.567-.98-1.138-1.578-1.696l-8.892-8.387c-.653-.592-1.069-1.169-1.752-1.736-.717-.596-2.86-2.559-4.006-2.749-2.366-.393-2.465 2.457-2.1 4.245.314 1.542 1.32 3.511 1.932 4.864 1.438 3.181 2.817 6.287 4.27 9.497 4.394 9.715 5.778 10.084-.548 12.969-7.998 3.648-7.209 3.696-11.088-4.607L44.643 172.21c-2.247-.745-7.56.34-7.76-2.537-.13-1.889 3.088-4.699 3.68-6.339zm143.282-79.002c1.635-.208 12.93-.522 14.786-.12 1.505.328 1.859.972 2.375 2.429 1.196 3.37 11.336 58.988 12.819 66.78 3.765 19.794 4.954 19.725-4.462 19.996-3.063.089-6.962.638-8.154-1.71-1.868-3.684-1.119-12.561-3.557-16.118-1.594-2.327-4.355-2.192-7.748-1.876-3.512.327-4.321 1.664-4.808 5.035-.429 2.972-.799 5.812-1.269 8.745-1.02 6.368.223 6.86-13.379 6.498-3.986-.105-3.066-2.987-2.6-6.282.812-5.738 1.751-11.515 2.651-17.262 3.055-19.505 6.343-40.775 9.087-60.41.481-3.438.815-5.267 4.259-5.705zm161.774 89.654c-.261-1.155 5.338-21.816 6.04-22.204.231-.128 14.095.678 14.609 1.712.557 1.117-5.901 12.102-6.1 13.928l9.244.874c2.495.583-.53 3.154-1.167 3.981-.439.569-.88.925-1.331 1.51l-15.357 17.646c-.25.28-.337.454-.571.748-.622.785-.723 1.055-1.938.846-.75-1.146.094-2.827.576-4.403l3.927-13.437c-2.074-.503-6.591-.18-7.932-1.201zm201.264 4.872c.787-3.057 1.318-7.141 1.884-10.328.618-3.474 1.248-6.902 1.858-10.376 1.017-5.79.233-6.109 5.886-5.134 3.427.591 6.767 1.208 10.189 1.826 11.406 2.058 10.898.782 9.701 7.436-.256 1.427-.377 4.01-1.817 4.291-1.265.246-8.563-1.45-10.388-1.774-4.825-.856-4.376.432-5.435 6.279-.442 2.436-.227 3.347 1.854 4.066 1.493.515 3.409.725 4.943 1.17 2.992.866 5.576 3.277 6.901 5.351 3.819 5.975 1.835 13 .53 20.041-.714 3.848-1.301 6.291-3.362 8.898-4.819 6.099-12.158 4.939-18.66 3.738-2.911-.537-7.522-.873-9.571-2.383-.342-2.433 1.49-10.742 2.016-13.605.742-4.033 1.844-8.936 2.285-12.937-2.641-2.718-3.716-2.249-3.427-4.451 1.488-1.13 3.282-1.184 4.613-2.108zm73.239 13.338c.634-2.389 2.259-12.543 2.869-15.865 2.177-11.851.912-11.391 7.249-10.245 5.202.941 10.768 1.46 15.017 3.766 3.636 1.973 6.836 5.804 6.705 11.849-.061 2.893-1.943 13.466-2.919 15.856a14.285 14.285 0 01-10.076 8.504c-3.407.772-5.293-.408-8.404-.389-3.108.018-2.904 3.001-3.415 5.847-.609 3.395-1.967 13.222-3.265 15.251-1.776.328-7.646-.406-8.753-1.418-1.303-1.191.322-6.958.651-8.822.524-2.966 1.051-5.889 1.605-8.905.51-2.773 1.249-6.114 1.55-8.869-.651-.728-1.113-1.056-1.903-1.762-.646-.578-1.742-.864-1.59-2.168.176-1.509 3.363-1.754 4.679-2.63zm-35.833 0c-.93-.996-2.899-2.424-3.074-2.91-.637-1.775 1.721-2.148 2.969-2.602 2.445-.888 2.29-.264 3.169-2.733.519-1.455 1.018-2.735 1.523-4.163l6.15-17.023c1.436-3.368 3.588-2.168 8.361-1.33 1.402.247 3.736.544 4.844 1.065.846.4.954.533 1.15 1.707.388 2.305-.128 21.45-.081 25.887l3.634 2.907c2.095 2.187-2.617 3.033-3.687 3.646-.146 4.758-.13 9.59-.177 14.354-.034 3.386.535 10.867-1.205 12.876-2.125.339-5.047-.341-7.124-.767-3.022-.619-2.777-1.944-2.611-5.008.397-7.315 1.217-9.725-5.22-10.283-2.987-.26-3.281 1.312-4.072 3.647-3.422 10.104-2.349 9.164-10.279 7.61-3.994-.783-3.566-.956-1.061-7.816.999-2.736 6.541-17.509 6.791-19.064zM220.56 206.19c-.485-4.144 1.669-3.643 8.039-3.557 4.655.062 7.013-.653 7.94 3.928l6.778 34.533c.25 1.223.662 4.076 2.297 3.121 1.866-1.091 7.011-34.088 8.461-38.562 1.168-3.601 4.55-2.793 9.065-2.688 1.485.035 3.975.08 5.324.528 3.144 1.045-.337 11.173-1.084 14.145l-7.167 28.263c-2.371 9.561-5.978 29.286-9.897 37.115-2.757 5.51-6.541 8.627-14.51 9.154-6.12.405-6.661-.006-6.771-4.641a82.473 82.473 0 01.05-5.905c.3-6.78 3.236-3.179 6.372-5.167 3.632-2.303.648-10.296-.313-14.058-2.393-9.367-13.72-48.844-14.584-56.209zm-60.228 54.944c-3-1.031-6.807-1.799-6.909-3.788-.114-2.235 4.895-4.467 5.148-5.677-2.107-11.604-4.589-23.338-6.511-34.972-.773-4.683.907-4.413 4.707-5.149l26.362-4.922c4.27-.794 5.474-1.379 6.429 2.962 2.995 13.617 3.3 10.55-14.582 13.811-3.309.603-5.819.999-5.378 4.87.189 1.664 1.191 7.459 1.702 8.766 2.123 5.43 8.307-.127 16.698 1.906 5.36 1.298 9.127 4.418 12.079 8.68 3.194 4.613 3.784 9.628 4.947 15.804 2.191 11.635 5.177 22.262-7.172 30.079-4.608 2.916-10.007 3.626-16.011 4.741-2.902.539-5.741 1.096-8.662 1.615-4.626.821-5.327.821-6.259-3.555-2.468-11.579-4.111-23.55-6.588-35.171zm190.731-45.355c1.115-.533 2.801-.093 4.027.122 2.271.397 3.544 2.706 9.988 3.716 5.329.836 10.717 1.435 16.066 2.157 5.64.761 6.145.254 5.702 3.444-.351 2.533-.854 5.094-1.395 7.559-1.156 5.271-2.247 3.659-12.773 1.811-8.861-1.557-10.186-2.865-11.726 4.079-1.115 5.033-1.921 10.148-2.917 15.208l-8.6 46.075c-.474 2.672-.669 5.55-3.672 5.534-2.027-.01-5.677-.841-7.744-1.28-3.434-.729-4.413-1.185-3.762-5.23.415-2.58.92-4.982 1.406-7.568l12.906-69.055c.461-2.351.583-5.657 2.494-6.572zm-18.371 16.649c-.685 5.217-1.5 10.47-2.333 15.678-.373 2.328-1.27 4.853-2.299 6.632-3.277 5.67-9.631 10.386-16.172 10.632-6.73.252-12.114-3.24-13.314 2.944-.966 4.982-1.568 10.523-2.336 15.613-.397 2.63-1.063 9.127-2.166 11.148-1.279 2.346-9.354.271-11.44-.181-3.285-.713-2.894-2.744-2.408-6.015 3.832-25.809 7.62-52.522 11.763-78.102.995-6.143 1.706-5.074 12.253-3.5 5.022.75 10.529 1.255 15.067 2.852 8.593 3.024 14.952 10.361 13.385 22.299zm100.545 1.968c.196-1.998.504-3.733-1.153-4.578-1.263-.645-3.136-.951-4.702-1.203l-20.385-3.24c-8.821-1.393-12.15-3.231-13.231 1.755-.346 1.592-.571 3.362-.842 5.049-3.84 23.816-7.442 47.738-11.362 71.513-1.528 9.267-1.431 8.099 12.278 10.3 6.777 1.088 13.608 2.164 20.369 3.243 5.443.868 5.648-.062 6.652-4.851 2.212-10.556.868-9.303-10.627-11.076-11.885-1.833-12.852-1.089-11.261-11.501.387-2.543 1.221-7.608 2.195-9.605 2.838-5.814 16.342 3.263 17.956-2.591.535-1.941 1.867-8.759 1.421-10.631-.581-2.445-6.535-2.777-8.739-3.129-3.46-.554-7.124-.748-7.552-4.3-.258-2.148.828-8.332 1.224-10.679 1.706-10.092 2.283-8.948 14.211-7.098 10.025 1.555 11.589 2.894 12.71-2.248.368-1.691.666-3.389.838-5.13zM440.439 0c-3.258.018-10.168.816-13.059 1.402l-9.489 2.315c-5.743 1.507-11.016 4.36-16.105 7.286-.688.395-1.018.696-1.691 1.151-2.944 1.99-5.412 4.172-7.943 6.705l-4.209 4.535c-.428.582-.728.986-1.178 1.664-3.64 5.473-5.686 9.267-7.81 15.583-.372 1.107-.679 3.593-1.437 4.466-1.853 2.135-3.69 4.28-4.953 6.854l-1.532 4.152c-1.019 3.374-.343 5.58-.836 7.472l-2.096 12.772c-.448 3.061-.472 7.376 1.539 9.736 1.153 1.355 2.07 1.677 3.223 2.68-1.18-.026-3.635-.8-4.809-1.093-1.638-.41-3.198-.737-4.94-1.18-.892-.228-1.671-.363-2.493-.568-.79-.197-1.728-.46-2.453-.608-1.768-.36-3.358-.802-4.993-1.128l-20.041-4.222c-11.679-2.335-31.864-6-43.966-7.403-3.67-.425-16.443-2.305-19.038-2.383-2.201-.067-6.045-.734-8.087-.876l-16.827-1.317c-1.339.005-1.824-.18-2.838-.221-.998-.04-2.037.115-3.021-.039l-14.692-.609c-1.182 0-23.328-.345-24.263.202l.837.11c-35.95 1.252-70.221 8.629-102.192 18.337-27.441 8.334-50.213 18.339-75.587 30.006-1.636.753-9.09 4.609-10.164 4.62-.506.568-.796.585-1.53.951L.183 126.819c.513 2.202 2.715 5.638 3.79 7.795l11.947 23.472c.514 1.027 1.048 2.051 1.5 3.091l3.823 7.983c2.332 4.741 9.048 21.394 10.825 26.78.214.647.35 1.142.615 1.79.483 1.184.747 2.219 1.189 3.403 2.287 6.133 7.954 23.381 9.896 30.333.203.728.406 1.14.568 1.836.9-.074 10.502-5.101 11.802-5.686 8.462-3.809 15.72-6.95 24.57-10.406l13.055-4.652c15.983-5.327 29.741-8.858 46.183-12.182 3.367-.68 6.674-1.283 9.988-1.816l15.256-2.232c5.462-.633 9.821-1.316 15.76-1.727.872-.06.394-.121 1.109-.203.487-.056 1.03.019 1.515-.015.865-.061.442-.158 1.309-.221l4.162-.209c.992-.036 1.514-.227 2.833-.227v.219c-1.665 0-18.25 4.291-20.852 4.941a817.52 817.52 0 00-32.619 8.915c-2.406.712-11.005 3.055-12.103 3.636l2.842 9.293c.651.93 3.161 11.054 3.69 13.032 1.192 4.455 2.237 9.024 3.214 13.625.512 2.415 5.441 26.027 5.533 28.115l9.202 41.326 1.679-.219c.971-1.087 16.689-4.743 19.411-5.37 37.008-8.522 76.12-8.989 113.788-4.729 10.834 1.226 21.773 2.977 32.56 4.623 1.815.276 9.535 1.292 10.599 1.759l63.059 10.496c8.897 1.412 20.618 3.424 29.49 4.39.729.08 1.861.341 2.648.412l22.07 2.412c.87.061.441.158 1.31.22l4.357.234c2.316.269 8.197.535 13.612.64h7.855c1.066-.036 1.906-.091 2.421-.172l8.453-.727c5.005-.656 7.646-1.502 12.077-3.225.968-.377 3.401-1.684 3.904-2.435-.985-.264-.964-.827-1.315-1.746-.213-.558-.6-1.776-.652-2.466-1.876-2.841-4.635-32.62-5.065-38.428-.505-6.852-.789-13.639-1.036-20.551-.113-3.158-.307-19.582.418-21.428 0-1.528.219-2.134.219-3.717 3.764 0 6.147 1.48 12.815-.737 1.478-.491 2.175-1.035 3.354-1.668.863-.969 1.671-1.457 2.48-2.553.731-.988 1.3-2.088 1.818-3.434 1.008-.1 19.132 2.864 21.83 3.268 22.615 3.387 45.468 5.883 68.299 7.889 26 2.285 64.03 4.771 90.936 4.22 1.498-.03 4.938-.316 6.12-.097.268-.086 3.027-.303 3.496-.329 1.249-.068 2.43-.406 3.499-.656-.113-1.35-1.192-1.017-4.404-2.155-4.675-1.657-10.693-5.358-14.455-8.498-1.103-.921-2.349-1.714-3.598-2.961l-5.129-4.708c-.318-.402-.243-.43-.661-.87l-1.739-1.759c-.454-.587-.146-.456-.835-.909l-4.641-5.419c-3.175-4.447-10.763-14.564-9.314-20.578.49-2.031 1.776-2.464 3.337-3.433l28.859-17.705c1.279-.792 7.282-4.662 8.208-4.816.583-.687 1.779-1.206 2.534-1.712l5.424-3.321c.584-.355.788-.462 1.352-.834.562-.369.962-.397 1.182-1.005-5.251 2.521-54.056-7.508-65.047-9.71l-56.098-11.886c-10.421-2.14-20.706-4.715-31.157-6.878l-12.292-2.791c-6.194-1.548-1.351.443-6.118-9.185-.77-1.554-1.785-3.201-2.902-4.532l-3.71-3.941c-1.306-1.31-2.798-2.267-4.258-3.394-.731-.565-1.485-1.025-2.249-1.468-.816-.471-1.664-1.092-2.619-1.315.636-.868 1.694-1.455 2.62-3.064 1.521-2.642 2.314-6.273 2.407-9.399.05-1.65.599-3.592.664-5.24.101-2.574-.406-2.952.296-4.95 1.974-5.614.928-12.317-1.471-17.069-.229-.454-.826-1.502-.938-1.902-.219-.773-.084-1.926-.081-2.763.015-3.795-.95-10.149-1.705-13.162-2.216-8.847-5.882-14.428-10.841-21.078-2.17-2.91-6.056-6.382-8.935-8.774l-1.598-1.244c-7.628-5.646-18.417-11.08-27.719-13.378-2.395-.592-4.479-1.337-6.923-1.822-.923-.183-1.589-.312-2.554-.505-3.118-.624-6.739-1.284-10.115-1.69-7.172-.86-12.119-.854-19.372-.881h-.259zm39.237 255.605c-.833 12.282.019 20.107-7.474 27.002-12.888 11.859-22.923-1.205-23.624 10.827-.172 2.931-1.301 21.661-1.745 23.945-.254 1.308-.451 2.286-1.699 2.637-2.22.627-10.339-.03-11.632-.654-2.273-1.097-1.489-4.748-1.313-7.35l3.314-48.121c.311-4.459 1.74-29.964 2.5-32.122.812-2.308 4.381-1.628 6.986-1.435 3.359.247 11.118 1.467 14.942 1.98 2.283.306 5.668.525 7.752 1.029 3.48.842 7.475 4.695 9.46 7.811 2.421 3.8 2.884 9.259 2.533 14.451z" fill="#FFD600"/><path d="M380.709 197.272c2.391.783 49.049 6.684 52.918 7.209 5.491.745 51.579 7.244 53.065 6.696.151-1.63-.815-4.81-1.024-6.737-.765-7.053.306-15.615 1.209-22.553 1.528-11.747 11.487-84.28 11.104-85.537l-98.422-13.154c-3.818 29.067-7.612 58.967-11.728 87.887-.677 4.754-1.445 9.534-2.59 14.027a54.4 54.4 0 01-2.022 6.3c-.939 2.424-2.512 4.612-2.51 5.862zm39.74-96.793c1.978-.776 3.943.42 4.019 2.285.051 1.255-.52 4.241-.703 5.668-1.449 11.265-3.211 22.848-4.547 33.933-1.59 13.188-3.7 26.535-5.178 39.585-.233 2.066-.249 3.9-1.917 4.478-1.961.68-3.98-.503-4.044-2.322-.045-1.304.503-4.179.697-5.638l4.532-33.932c1.063-7.529 1.956-15.045 2.971-22.606.511-3.811 1.013-7.565 1.521-11.399.251-1.893.511-3.676.714-5.572.231-2.15.145-3.778 1.935-4.48zm25.232 3.331c1.885-.68 3.76.428 3.839 2.25.055 1.283-.502 4.165-.696 5.606l-4.527 33.958c-.961 7.603-1.96 15.185-3.031 22.745-.535 3.772-1.004 7.602-1.502 11.372-.247 1.86-.539 3.78-.724 5.648-.191 1.925-.285 3.803-1.946 4.376-1.768.609-3.852-.409-3.98-2.144-.083-1.117 4.943-37.691 5.212-39.689l5.297-39.739c.336-2.518-.103-3.603 2.058-4.383zm25.265 3.214c2.042-.461 3.675.751 3.553 2.744-.111 1.842-.417 3.853-.656 5.685l-9.089 68.037c-.256 1.899-.506 3.753-.75 5.649-.272 2.1-.135 3.733-2.241 4.08-2.119.348-3.68-.772-3.613-2.743l9.838-73.657c.252-1.896.502-3.708.735-5.61.259-2.125.103-3.705 2.223-4.185z" fill="#FFD600"/><path d="M388.793 65.598l.347 3.443c-6.342-.587-6.428-2.203-7.529 8.573-.374 3.656 1.562 3.375 4.772 3.792 2.494.324 5.068.754 7.581.968-.561 6.366-1.708 13.13-2.553 19.486-2.558 19.237-5.412 39.198-7.7 58.304-1.415 11.806-3.126 26.598-8.734 35.235-1.95 3.004-5.181 6.248-8.084 8.313-1.161.826-2.69 1.702-2.78 2.919-.216 2.926 5.202 2.822 7.728 3.167 3.324.453 6.557.875 9.878 1.323l96.821 12.881c3.283.438 17.612 2.778 19.801 2.408 4.228-.714.111-4.864-1.044-6.507-3.397-4.833-5.587-9.713-6.122-15.904-.176-2.047-.432-9.228.38-10.701 1.76-.397 6.687.649 8.732.915 8.164 1.066 16.699-.91 21.772-6.713 3.813-4.362 3.958-7.494 4.809-14.444l4.538-34.181c.838-6.705 1.332-10.544-2.235-15.579-8.385-11.839-22.043-9.675-27.177-11.487-.09-4.482 1.447-10.231 1.781-14.792 6.984.16 13.143 3.538 14.271-.535.397-1.434.962-6.181.995-7.712.074-3.447-2.984-2.485-5.526-3.345.503-.875.976-1.663 1.298-2.914 3.647.048 6.096-.99 5.661-5.771-.469-5.15-3.805-7.88-3.862-8.085-.681-2.483 5.151-24.539-19.355-41.784-17.803-12.528-52.707-18.358-75.11-11.025-10.785 3.53-18.392 8.416-24.781 17.407-2.726 3.837-4.799 8.48-6.057 13.39l-1.02 4.716c-.369 1.642-1.51.15-4.778 5.017-2.486 3.702-2.45 9.407 3.282 9.222zm7.284-15.34c5.33.308 20.211 2.59 26.727 3.409l66.59 8.805c1.813.242 4.878.325 6.157 1.31 1.802 1.387.877 4.24-1.802 4.289-1.599.03-11.054-1.376-13.449-1.696l-66.593-8.834c-4.426-.573-8.924-1.09-13.298-1.794-2.178-.35-4.961-.613-6.927.295-1.531.707-3.319 2.31-3.841 3.92 2.901-.96 4.408-2.67 8.451-2.078 1.563.23 2.811.718 4.024 1.406 1.467.833 1.948 1.467 3.01 2.456 6.205 5.779 10.826-5.881 20.226 1.41 1.084.841 1.724 1.71 2.976 2.493 5.079 3.177 8.722-5.04 17.038-.862 1.302.654 2.334 1.564 3.136 2.329.868.828 1.607 1.853 3.319 2.146 2.849.488 5.346-1.909 8.105-2.516 3.091-.68 6.604.229 8.64 1.73 1.939 1.43 3.458 4.332 7.226 3.633 2.868-.534 3.855-2.604 8.104-2.723 3.346-.093 5.9 1.286 7.645 2.996.721.705 1.945 1.936 3.116 2.353 5.176 1.845 5.935-3.507 13.405-2.231 4.128.704 5.72 3.48 6.94 4.066-.514-3.917-3.089-5.595-6.69-6.513-1.728-.44-3.212-1.88-1.977-3.894.943-1.539 3.246-.92 5.09-.593.949-9.196-3.313-22.285-9.956-28.258l-2.237-2.353c-3.411-3.328-10.757-7.788-14.946-9.543-19.706-8.251-47.514-11.341-66.575-2.425-3.317 1.552-8.882 4.91-10.993 7.373l-2.933 3.193c-2.872 3.06-7.021 11.006-7.708 16.7zm51.437 22.66c7.446 4.059 11.235-1.211 14.779-1.335 1.366-.047 2.743.49 3.473 1.223.949.952 1.319 1.362 2.397 2.196 3.092 2.394 7.816 2.985 11.183 1.337 1.9-.93 4.196-2.798 7.182-1.346 2.427 1.18 3.412 4.489 8.821 5.119 6.463.752 10.237-5.653 14.429-1.18-.01 2.983-1.137 5.549-4.238 5.479-2.978-.067-20.668-2.749-24.941-3.264-11.139-1.343-22.304-2.97-33.415-4.415l-41.686-5.516c-7.404-.98-12.179-.195-11.11-6.99.41-2.613 4.557-1.18 6.454.496.511.452.666.698 1.191 1.209 3.289 3.203 8.693 3.22 12.474 1.309 7.911-4.002 6.509 1.079 12.509 3.44 7.756 3.05 10.672-3.262 15.1-1.778 2.244.753 3.206 2.82 5.398 4.016zm-60.203 3.549c-.057-.852.095-1.779.423-2.477l125.643 16.6-.306 2.545-125.76-16.668zm-6.602 120.799c2.391.782 49.049 6.684 52.918 7.209 5.491.745 51.58 7.244 53.065 6.695.151-1.629-.814-4.81-1.024-6.736-.765-7.053.306-15.615 1.209-22.554 1.528-11.746 11.487-84.28 11.104-85.537L399.56 83.19c-3.818 29.068-7.612 58.968-11.729 87.888-.676 4.754-1.444 9.533-2.59 14.027a54.207 54.207 0 01-2.022 6.3c-.939 2.424-2.512 4.611-2.51 5.862zm124.85-73.098c4.458.544 7.909.844 10.294 3.492 2.79 3.097 1.243 7.279.689 11.475l-4.843 36.239c-.465 3.812-1.599 6.684-6.483 7.319-4.114.535-9.532-1.488-12.58-.977-.338 1.15-1.081 5.543-.704 6.572.173.163-.076.141.541.373l6.504.923c7.407.943 14.288.509 19.021-5.492 2.759-3.499 2.905-8.223 3.535-13.322.612-4.968 1.205-9.939 1.914-14.876.708-4.934 1.432-9.89 1.995-14.862.589-5.209 2.141-9.572-.309-14.347-1.754-3.416-5.05-6.134-9.09-7.747-2.331-.931-11.948-2.702-14.647-2.368-.397.749-.966 4.731-.94 5.889.037 1.583 2.219 1.358 5.103 1.709zm-5.698 4.001c1.547-.393 6.153.5 7.903.758 3.089.455 4.421.777 3.921 4.252l-5.052 37.805c-.243 1.875-.413 6.126-1.6 6.921-1.404.939-6.019-.075-7.839-.309-4.428-.572-4.106.111-3.516-4.273.867-6.446 5.577-44.236 6.183-45.154zm-126.158 77.238c.088-1.147.297-.985.994-1.546 1.923-1.543 1.396-2.636 4.293-2.229l23.064 3.14c25.6 3.59 51.979 6.897 77.714 10.338 2.608.349 5.134.707 7.751 1.035 1.736.217 1.731.523 2.47 1.885.462.854 1.311 1.92 1.329 2.986-2.891.262-11.676-1.297-15.062-1.755l-73.443-9.812c-4.076-.551-27.243-3.347-29.11-4.042zM264.01 90.557c-7.105-.194-8.183-1.38-14.502 1.871-9.904 5.096-10.925 13.159-12.336 22.397a2592.49 2592.49 0 00-2.291 15.232c-.733 5.007-1.504 9.979-2.266 15.024-1.313 8.687-2.77 13.932 2.065 21.574 3.23 5.104 9.612 9.264 16.328 9.945-.938 9.501-2.994 9.67 6.175 11.062 9.399 1.427 6.84-.04 8.817-8.745 5.732.528 10.269.118 14.852-2.223 3.642-1.861 7.528-5.082 9.189-8.299 3.29-6.37 4.944-21.892 5.993-28.96.758-5.104 1.496-10.176 2.242-15.251.803-5.463 1.549-10.341.086-15.76-2.204-8.166-8.061-13.213-15.702-14.91-1.167-.26-2.688-.34-3.664-.8.076-2.27 1.368-6.127.597-8.17-.719-1.9-4.15-2.046-6.529-2.4-7.015-1.04-8.133-1.72-9.054 8.413zm-10.58 70.074c-2.478-.086-5.132-2.124-5.93-3.528-1.325-2.33-.592-5.461-.176-8.269l4.994-33.232c.742-4.855.647-10.36 9.384-9.852l-8.272 54.881zm23.226-52.585c6.748.8 7.025 5.652 6.046 12.106l-5.033 33.447c-.725 4.769-1.686 10.895-9.304 9.331l8.291-54.884z" fill="#070705"/><path d="M396.073 50.265c5.329.31 20.21 2.591 26.726 3.41l66.59 8.805c1.813.243 4.878.324 6.157 1.31 1.802 1.387.877 4.24-1.802 4.29-1.599.028-11.054-1.376-13.449-1.696l-66.593-8.835c-4.426-.572-8.924-1.09-13.298-1.794-2.177-.35-4.961-.613-6.926.295-1.532.707-3.319 2.31-3.842 3.92 2.901-.961 4.408-2.67 8.451-2.078 1.563.229 2.811.718 4.024 1.407 1.468.833 1.949 1.465 3.011 2.455 6.204 5.778 10.825-5.881 20.225 1.41 1.084.84 1.724 1.71 2.977 2.493 5.079 3.177 8.721-5.04 17.037-.862 1.302.654 2.335 1.564 3.137 2.33.868.827 1.606 1.852 3.318 2.145 2.849.489 5.347-1.908 8.105-2.516 3.091-.681 6.604.23 8.641 1.73 1.938 1.43 3.458 4.332 7.225 3.632 2.868-.533 3.855-2.603 8.104-2.722 3.346-.093 5.9 1.286 7.646 2.995.72.706 1.944 1.937 3.115 2.355 5.176 1.844 5.936-3.508 13.405-2.232 4.128.704 5.72 3.48 6.94 4.066-.514-3.918-3.089-5.596-6.69-6.513-1.728-.44-3.212-1.88-1.976-3.894.942-1.539 3.246-.919 5.089-.593.949-9.197-3.312-22.285-9.956-28.258l-2.236-2.354c-3.412-3.328-10.758-7.788-14.947-9.542-19.705-8.252-47.514-11.342-66.575-2.425-3.317 1.552-8.882 4.91-10.993 7.373l-2.933 3.193c-2.872 3.06-7.02 11.006-7.707 16.7zm43.266-27.114c1.091-.636 6.283.203 7.831.479 1.348.24 2.188.671 2.437 1.96.289 1.505-.201 2.481-1.316 2.854-1.436.48-6.09-.249-7.8-.563-1.374-.252-2.221-.658-2.487-1.88-.335-1.535.382-2.294 1.335-2.85zm14.992 1.898c.161-.063 9.466-.725 10.245 2.582 1.074 4.57-6.81 2.668-9.201 2.22-3.414-.641-2.953-4.065-1.044-4.802zm14.965 2.027c1.295-.54 6.152.21 7.783.534 2.918.578 3.28 3.826.99 4.825-1.209.528-6.352-.321-7.869-.61-3.003-.572-3.442-3.689-.904-4.749zm-54.536 2.348c1.106-.466 6.454.253 7.874.61 1.212.304 2.137.842 2.413 1.95 1.133 4.544-6.949 2.73-9.281 2.267-2.911-.58-3.273-3.874-1.006-4.827zm14.959 2.026c1.076-.528 6.307.27 7.809.549 3.106.577 3.133 4.128.994 4.827-1.318.43-6.312-.3-7.892-.62-1.236-.25-2.112-.765-2.367-1.965-.314-1.477.535-2.338 1.456-2.79zm15.016 1.913c1.14-.374 6.431.287 7.797.656 1.227.331 2.16.807 2.356 2.06.206 1.318-.493 2.32-1.481 2.732-1.084.453-6.534-.343-7.941-.62-3.132-.617-2.84-4.138-.731-4.828zm14.968 2.026c1.301-.455 6.397.258 7.872.619 3.044.744 2.73 3.899.71 4.799-.061.027-9.457.635-10.208-2.549-.399-1.693.523-2.483 1.626-2.869zm14.808 1.953c1.152-.544 6.35.394 7.897.663 2.912.507 2.996 3.942.795 4.819-1.082.431-6.329-.42-7.798-.677-1.417-.25-2.05-.685-2.354-1.98-.379-1.6.466-2.356 1.46-2.825zm14.932 2.011c1.206-.536 6.069.343 7.712.59 3.167.475 3.095 4.021 1.067 4.773-1.158.428-6.538-.298-7.945-.597-3.127-.662-3.246-3.693-.834-4.766z" fill="#FFD600"/><path d="M160.329 261.13c2.478 11.621 4.12 23.592 6.589 35.172.932 4.375 1.633 4.375 6.258 3.554 2.922-.519 5.76-1.076 8.662-1.615 6.004-1.115 11.403-1.825 16.011-4.741 12.349-7.818 9.364-18.444 7.172-30.079-1.163-6.176-1.753-11.191-4.947-15.804-2.951-4.261-6.719-7.382-12.078-8.68-8.392-2.033-14.576 3.524-16.699-1.905-.511-1.308-1.512-7.103-1.702-8.767-.441-3.871 2.069-4.267 5.378-4.87 17.882-3.261 17.577-.194 14.582-13.811-.954-4.34-2.159-3.756-6.429-2.962l-26.362 4.923c-3.8.735-5.479.465-4.707 5.148 1.922 11.634 4.404 23.368 6.511 34.972-.252 1.211-5.262 3.443-5.148 5.677.102 1.989 3.91 2.757 6.909 3.788zm14.965-2.906c-.668-5.989 10-6.857 13.411-.323 1.846 3.535 3.729 14.894 2.251 19.08-.961 2.719-3.09 4.333-6.236 5.127-4.605 1.164-5.323-.481-6.069-4.524-.597-3.238-1.116-6.509-1.654-9.733-.505-3.031-1.379-6.718-1.703-9.627zM40.563 163.337c-.593 1.64-3.812 4.45-3.68 6.339.2 2.877 5.513 1.792 7.76 2.538l13.06 28.257c3.88 8.303 3.09 8.255 11.089 4.607 6.326-2.884 4.941-3.254.546-12.969-1.452-3.21-2.831-6.315-4.27-9.497-.61-1.353-1.616-3.322-1.93-4.864-.365-1.788-.266-4.638 2.1-4.245 1.145.19 3.288 2.153 4.006 2.749.683.567 1.099 1.144 1.752 1.736l8.89 8.387c.598.558.979 1.129 1.58 1.696.652.617 1.137 1.089 1.78 1.718 5.82 5.692 5.922 5.904 13.866 2.287 1.51-.688 3.201-1.403 4.572-2.203 3.709-2.162 2.213-3.26-.321-5.747l-28.372-26.715c-.353-.312-.604-.502-.929-.826-2.495-2.489-3.977-3.627-6.281-5.738-.524-.479-1.072-1.235-1.45-2.049-.898-1.93-.463-4.064-.365-6.23l.885-26.679c.174-6.937 1.015-7.906-5.426-5.238-2.126.881-7.943 3.452-8.844 4.927-.948 1.551-.94 10.267-1.033 12.774-.08 2.196-.176 4.369-.262 6.567-.07 1.799-.13 4.594-1.968 4.94-3.572.672-7.677-14.885-10.32-17.068-1.462-1.206-3.488.028-4.989.67-9.068 3.877-7.918 3.636-4.488 11.43 1.38 3.137 2.879 6.354 4.325 9.456 1.993 4.274 7.3 15.296 8.717 18.99zM183.84 84.333c-3.443.438-3.778 2.267-4.259 5.705-2.743 19.636-6.032 40.905-9.086 60.411-.901 5.746-1.839 11.523-2.651 17.262-.467 3.294-1.387 6.176 2.6 6.282 13.601.362 12.359-.13 13.379-6.499.469-2.933.84-5.773 1.268-8.745.487-3.371 1.297-4.708 4.808-5.034 3.393-.317 6.154-.451 7.749 1.876 2.437 3.556 1.688 12.434 3.557 16.117 1.191 2.349 5.091 1.799 8.153 1.711 9.417-.272 8.228-.202 4.462-19.996-1.482-7.792-11.623-63.41-12.818-66.78-.517-1.458-.87-2.102-2.376-2.43-1.855-.402-13.151-.088-14.786.12zm4.327 53.857c-.474-2.069.656-9.819 1.339-12.414.393-1.494.63-2.492 2.366-2.241 1.98.74 3.776 13.832 3.518 14.436-1.385 1.613-5.601 1.547-7.223.219zM332.703 232.425c1.568-11.939-4.791-19.276-13.384-22.299-4.538-1.597-10.045-2.103-15.068-2.852-10.546-1.574-11.257-2.644-12.253 3.5-4.143 25.579-7.931 52.292-11.762 78.101-.486 3.272-.877 5.304 2.408 6.016 2.086.452 10.16 2.526 11.44.181 1.103-2.022 1.768-8.518 2.165-11.149.768-5.089 1.37-10.63 2.337-15.612 1.199-6.184 6.584-2.692 13.314-2.944 6.541-.246 12.895-4.962 16.172-10.632 1.029-1.779 1.926-4.303 2.299-6.632.832-5.208 1.648-10.46 2.332-15.678zm-25.773-8.779c2.672-.995 6.718 1.036 8.175 2.28 4.385 3.745 2.982 12.078 1.541 17.155-2.193 7.728-9.225 8.748-13.011 6.35-2.479-1.569-1.284-5.186-.8-8.37.484-3.191.818-6.277 1.231-9.501.402-3.137.424-7.006 2.864-7.914zM118.594 92.148c-4.799.62-10.418 2.163-15.173 3.24-8.502 1.924-8.468 1.177-6.464 10.049 2.279 10.091 4.557 20.077 6.772 30.204 2.21 10.103 4.481 20.102 6.765 30.197 1.134 5.014 2.144 10.219 3.409 15.172.856 3.351 1.916 3.622 5.505 2.972 2.493-.453 5.317-1.03 7.492-1.908 1.519-.613 1.869-.836 1.837-2.778-.022-1.376-.365-2.677-.648-3.958-.698-3.155-4.943-21.248-5.016-22.74-.375-7.625 13.304-.773 20.847-16.034 3.76-7.609 1.436-14.408-.528-22.891-.556-2.404-1.043-5.326-1.825-7.574-1.797-5.164-4.114-8.465-7.704-10.884-3.893-2.623-9.67-3.79-15.269-3.067zm-4.617 20.462c-.925-6.443 7.939-5.282 10.243-4.03 6.014 3.265 7.752 16.068 6.296 20.04-1.714 4.68-7.462 6.832-10.372 5.248-1.207-.657-1.648-1.856-1.999-3.477-.584-2.692-1.206-6.283-2.079-8.853-.684-2.015-1.782-6.792-2.089-8.928zM479.666 255.602c.352-5.191-.111-10.651-2.532-14.45-1.986-3.117-5.981-6.969-9.461-7.811-2.083-.504-5.468-.723-7.751-1.029-3.824-.513-11.583-1.733-14.942-1.981-2.605-.193-6.174-.872-6.987 1.435-.76 2.159-2.189 27.663-2.499 32.122l-3.314 48.122c-.176 2.601-.96 6.252 1.313 7.349 1.293.625 9.412 1.281 11.632.655 1.248-.352 1.444-1.329 1.699-2.638.444-2.284 1.573-21.014 1.744-23.944.702-12.032 10.737 1.031 23.624-10.827 7.493-6.896 6.642-14.721 7.474-27.003zm-25.864-9.005c2.554-.763 6.709.634 8.136 1.888 4.518 3.97 3.774 11.388 2.695 16.943-.7 3.599-1.767 5.019-3.935 6.551-2.034 1.437-5.587 2.127-8.246.861-2.951-1.405-1.967-4.999-1.743-8.277.226-3.32.331-6.572.483-9.904.151-3.312-.15-7.24 2.61-8.062zM433.247 234.398c.196-1.998.504-3.733-1.154-4.578-1.263-.645-3.135-.951-4.701-1.203l-20.385-3.24c-8.821-1.393-12.15-3.231-13.232 1.755-.345 1.592-.569 3.362-.842 5.049-3.839 23.816-7.441 47.738-11.361 71.513-1.528 9.267-1.431 8.099 12.278 10.3 6.777 1.088 13.608 2.164 20.369 3.243 5.443.868 5.648-.062 6.652-4.851 2.212-10.556.868-9.304-10.627-11.076-11.885-1.833-12.852-1.089-11.261-11.501.388-2.543 1.221-7.608 2.196-9.604 2.836-5.815 16.341 3.262 17.955-2.592.535-1.941 1.868-8.758 1.421-10.631-.581-2.445-6.535-2.776-8.739-3.129-3.46-.554-7.124-.748-7.552-4.299-.258-2.15.828-8.333 1.224-10.68 1.706-10.092 2.283-8.948 14.212-7.098 10.024 1.555 11.588 2.894 12.71-2.248.368-1.69.665-3.389.837-5.13zM267.371 217.633c.746-2.972 4.227-13.1 1.083-14.144-1.348-.448-3.838-.494-5.324-.529-4.515-.104-7.896-.914-9.064 2.688-1.451 4.475-6.595 37.471-8.462 38.562-1.634.955-2.047-1.898-2.296-3.121l-6.778-34.533c-.928-4.58-3.286-3.866-7.94-3.928-6.37-.085-8.525-.587-8.04 3.557.864 7.366 12.192 46.841 14.585 56.209.96 3.762 3.944 11.756.312 14.058-3.135 1.988-6.072-1.612-6.372 5.168a83.029 83.029 0 00-.05 5.904c.111 4.636.651 5.046 6.772 4.641 7.968-.527 11.752-3.644 14.51-9.154 3.918-7.829 7.526-27.554 9.897-37.115l7.167-28.263zM316.635 98.515c-1.962.768-2.824 8.137-3.101 10.7-.845 7.832 13.69.668 12.199 10.963-.754 5.203-1.989 10.613-2.935 15.822a1073.667 1073.667 0 01-2.973 15.793c-2.085 10.553-3.856 21.138-5.988 31.643-.75 3.694-.832 5.006 2.722 5.809 10.214 2.307 11.133 2.652 12.199-3.316l7.42-39.398c.917-4.89 3.406-19.4 4.532-23.671 2.018-7.653 9.135-1.996 13.477-3.128 1.973-.514 2.201-4.6 2.629-6.738 1.628-8.127 1.162-7.116-8.42-8.939-3.601-.686-30.363-6.086-31.761-5.54zM351.075 215.78c-1.912.915-2.034 4.221-2.495 6.572l-12.905 69.055c-.486 2.586-.992 4.988-1.407 7.568-.65 4.045.328 4.501 3.762 5.23 2.067.439 5.717 1.269 7.744 1.28 3.002.016 3.198-2.862 3.671-5.534l8.602-46.075c.994-5.06 1.802-10.175 2.917-15.208 1.539-6.944 2.863-5.636 11.725-4.08 10.526 1.849 11.618 3.461 12.773-1.81.541-2.465 1.044-5.026 1.396-7.559.442-3.19-.062-2.683-5.703-3.444-5.349-.722-10.737-1.321-16.066-2.157-6.445-1.01-7.716-3.32-9.988-3.717-1.226-.214-2.912-.654-4.026-.121zM508.819 234.396l5.932 1.07c2.137.279 3.922.595 6.041.953l52.078 7.379c2.55.142 7.107.932 9.4 1.092 3.392.238 8.425.981 11.149 1.092.96.04.699.165 1.527.222 4.424.306 8.42.775 12.897 1.093l6.337.657c2.316.164 4.256.347 6.566.428.957.035.686.167 1.522.228.548.04 1.182-.049 1.733.015 2.789.324 7.477.467 9.681.812 2.017.315 4.596.034 6.598.396l16.522.965c2.734-.013 3.503.229 6.781.214 1.386-.007 1.817.229 3.275.222 4.03-.021 9.556.437 13.553.436 2.145 0 4.931-.157 6.996-.001.831.062.57.19 1.521.228l8.754-.006c1.386.007 1.816-.23 3.275-.222 1.166.006 2.332-.004 3.499.002l6.538-.457c1.02-.109 1.972-.431 2.86-.637-.08-.959-.372-.937-1.224-1.18-3.059-.875-2.833-.873-5.64-2.012-1.614-.656-5.462-2.683-6.688-3.696-1.182-.218-4.621.068-6.12.098-26.906.55-64.936-1.935-90.935-4.22-22.831-2.006-45.684-4.502-68.3-7.889-2.698-.405-20.823-3.368-21.83-3.269-.517 1.347-1.087 2.447-1.817 3.435-.81 1.096-1.617 1.584-2.481 2.552zM546.881 178.858c-1.331.924-3.124.979-4.613 2.108-.29 2.202.786 1.734 3.427 4.452-.441 4-1.544 8.903-2.285 12.937-.527 2.862-2.359 11.172-2.017 13.605 2.05 1.509 6.66 1.846 9.571 2.382 6.502 1.201 13.842 2.362 18.661-3.737 2.06-2.608 2.648-5.051 3.361-8.898 1.306-7.042 3.29-14.066-.529-20.042-1.325-2.073-3.909-4.484-6.902-5.351-1.534-.444-3.45-.654-4.942-1.17-2.082-.719-2.297-1.629-1.855-4.066 1.059-5.846.61-7.134 5.435-6.278 1.825.324 9.123 2.019 10.388 1.773 1.44-.281 1.561-2.864 1.818-4.29 1.196-6.655 1.704-5.379-9.701-7.437-3.423-.617-6.763-1.235-10.189-1.826-5.653-.974-4.869-.655-5.887 5.134-.61 3.475-1.24 6.902-1.857 10.377-.566 3.187-1.098 7.27-1.884 10.327zm11.034 6.337c2.718-.813 7.668 1.439 6.567 8.03-.742 4.438-1.366 9.236-4.606 10.91-1.672.864-5.251.91-6.258-.57-1.016-1.494 1.344-10.891 1.755-13.104.47-2.529.243-4.578 2.542-5.266zM584.278 192.199c-.25 1.556-5.791 16.328-6.791 19.065-2.504 6.86-2.932 7.033 1.062 7.815 7.93 1.554 6.857 2.495 10.279-7.61.79-2.334 1.085-3.906 4.072-3.647 6.437.559 5.616 2.969 5.22 10.283-.167 3.065-.411 4.389 2.61 5.009 2.078.426 5 1.105 7.124.767 1.741-2.01 1.172-9.491 1.206-12.877.047-4.764.031-9.596.177-14.353 1.07-.614 5.781-1.46 3.686-3.647l-3.634-2.906c-.046-4.438.469-23.583.082-25.888-.197-1.173-.305-1.307-1.15-1.706-1.108-.522-3.442-.819-4.845-1.065-4.772-.839-6.924-2.038-8.36 1.329l-6.151 17.023c-.504 1.428-1.003 2.708-1.522 4.163-.88 2.469-.725 1.845-3.169 2.734-1.248.453-3.606.827-2.969 2.602.175.485 2.143 1.913 3.073 2.909zm14.305 5.878c-.923.754-3.052.248-4.022-.263-1.167-.616-.406-1.955-.015-3.369.646-2.348 1.485-4.768 2.71-6.661l1.17.072c.917 1.443.666 4.088.666 6.092 0 1.127.257 3.319-.509 4.129zM620.113 192.194c-1.316.877-4.504 1.121-4.679 2.631-.152 1.303.944 1.59 1.59 2.167.79.706 1.252 1.035 1.904 1.762-.302 2.756-1.041 6.097-1.551 8.87-.554 3.015-1.081 5.938-1.605 8.905-.329 1.863-1.953 7.631-.651 8.822 1.106 1.011 6.977 1.746 8.753 1.418 1.299-2.029 2.656-11.857 3.265-15.251.511-2.847.307-5.83 3.415-5.848 3.111-.018 4.996 1.161 8.405.39a14.287 14.287 0 0010.076-8.504c.975-2.391 2.856-12.963 2.919-15.856.13-6.045-3.07-9.877-6.706-11.85-4.249-2.306-9.814-2.825-15.017-3.765-6.337-1.146-5.072-1.606-7.248 10.244-.611 3.322-2.237 13.476-2.87 15.865zm13.862-14.423c4.889-.736 7.84 2.578 7.746 7.208-.042 2.096-.594 4.4-1.16 6.276-1.567 5.193-6.516 5.738-8.974 4.068-1.713-1.165-.782-3.629-.407-5.792.653-3.77.983-9.749 2.795-11.76z" fill="#070705"/><path d="M13.291 120.397c1.075-.011 8.528-3.866 10.165-4.619C48.83 104.111 71.6 94.105 99.041 85.771c31.971-9.707 66.242-17.085 102.192-18.336l-.837-.11c-2.369.07-4.836.028-7.214.015-1.458-.007-1.889.229-3.275.222-3.379-.016-4.244.227-7 .214-1.412-.006-1.956.235-3.496.22l-10.225.704c-2.985.464-9.843.892-13.362 1.284-9.834 1.093-19.005 2.573-28.677 4.112-2.142.34-4.221.798-6.314 1.117l-6.071 1.143c-1.92.401-4.08.863-6.155 1.277-3.995.798-7.946 1.776-11.946 2.7-4.064.938-7.598 1.851-11.589 2.838-3.951.978-7.764 2.141-11.495 3.151l-11.324 3.322c-3.843 1.008-12.584 4.014-16.53 5.33L8.483 108.885l2.374 5.715c.24.615.339.775.615 1.353l1.82 4.444zM152.453 316.611c.496 2.27 2.077 6.755 2.693 9.402l4.619-1.502c8.987-2.968 14.055-4.59 23.622-6.982 11.132-2.784 30.37-6.468 41.704-7.26l2.756-.305c.86-.153 2.049-.194 2.757-.303l5.628-.492c3.3-.123 5.871-.44 8.754-.427 1.329.006 1.588-.225 2.833-.227 4.821-.004 20.763-.607 24.252-.197 3.504.411 8.326.073 11.648.593 1.637.257 4.124.136 5.856.265.863.063.447.158 1.309.221.482.035 1.052-.038 1.533-.002.867.062.443.159 1.309.22l32.133 3.06c1.182.066 1.59.219 2.952.219-1.063-.467-8.783-1.483-10.599-1.76-10.786-1.644-21.725-3.396-32.56-4.621-37.667-4.261-76.78-3.794-113.787 4.728-2.722.626-18.441 4.283-19.412 5.37z" fill="#070705"/><path d="M492.631 181.715c-.338 1.151-1.081 5.543-.704 6.573.172.163-.076.14.541.372l6.504.924c7.407.942 14.288.509 19.021-5.493 2.759-3.499 2.905-8.223 3.535-13.322.612-4.967 1.205-9.938 1.913-14.876.709-4.934 1.433-9.89 1.996-14.862.589-5.208 2.141-9.571-.31-14.347-1.753-3.415-5.049-6.133-9.089-7.747-2.331-.93-11.948-2.702-14.647-2.368-.397.749-.966 4.732-.94 5.889.037 1.583 2.219 1.358 5.103 1.71 4.457.544 7.908.843 10.294 3.492 2.79 3.097 1.243 7.279.688 11.475l-4.843 36.239c-.464 3.812-1.598 6.684-6.482 7.319-4.114.535-9.532-1.489-12.58-.978z" fill="#FFD600"/><path d="M499.851 128.174c-.606.918-5.316 38.707-6.183 45.153-.59 4.385-.912 3.702 3.515 4.273 1.821.235 6.437 1.248 7.84.309 1.187-.794 1.357-5.045 1.6-6.92l5.053-37.805c.499-3.476-.833-3.798-3.922-4.253-1.75-.258-6.356-1.15-7.903-.757z" fill="#FFD600"/><path d="M676.48 220.847l-3.847-6.215c-1.547-2.538-4.894-9.718-3.07-12.953.875-1.551 10.312-6.834 12.292-8.038l25.452-15.648c1.436-.848 2.71-1.689 4.217-2.558.467-.269.483-.297.933-.599.48-.321.603-.355 1.094-.654l6.426-4.067c-1.451 0-2.625.352-4.373.22-.856-.065-1.015-.221-2.187-.217l-10.489-1.222c-.925.155-6.928 4.024-8.208 4.816l-28.858 17.705c-1.563.969-2.848 1.402-3.338 3.433-1.448 6.015 6.14 16.131 9.314 20.579l4.642 5.418z" fill="#070705"/><path d="M509.767 78.934c-4.191-4.472-7.966 1.933-14.429 1.18-5.408-.63-6.393-3.938-8.821-5.118-2.985-1.452-5.282.415-7.181 1.345-3.368 1.649-8.091 1.057-11.183-1.337-1.079-.834-1.449-1.244-2.398-2.196-.73-.732-2.106-1.27-3.472-1.223-3.545.124-7.335 5.394-14.78 1.335-2.192-1.195-3.153-3.263-5.398-4.016-4.428-1.483-7.344 4.828-15.099 1.777-6.001-2.36-4.599-7.44-12.51-3.44-3.78 1.913-9.185 1.895-12.474-1.307-.525-.512-.68-.757-1.19-1.21-1.897-1.676-6.045-3.108-6.456-.496-1.068 6.796 3.707 6.01 11.112 6.99l41.686 5.516c11.111 1.446 22.275 3.072 33.414 4.416 4.273.515 21.963 3.196 24.942 3.263 3.101.07 4.227-2.496 4.237-5.48zM373.707 205.405c1.867.694 25.034 3.49 29.11 4.042l73.443 9.811c3.385.459 12.171 2.017 15.062 1.755-.018-1.065-.867-2.132-1.329-2.985-.739-1.363-.734-1.668-2.47-1.886-2.617-.328-5.144-.686-7.751-1.034-25.735-3.442-52.114-6.749-77.714-10.339l-23.065-3.139c-2.896-.407-2.369.685-4.291 2.229-.698.56-.906.399-.995 1.546z" fill="#FFD600"/><path d="M445.681 103.803c-2.162.78-1.722 1.865-2.059 4.384l-5.296 39.738c-.269 1.999-5.295 38.572-5.212 39.69.127 1.734 2.212 2.753 3.979 2.143 1.662-.573 1.755-2.45 1.947-4.375.185-1.869.477-3.788.724-5.648.498-3.771.967-7.601 1.501-11.372 1.072-7.56 2.07-15.143 3.031-22.746l4.527-33.957c.194-1.441.751-4.324.696-5.607-.078-1.821-1.954-2.93-3.838-2.25zM470.954 107.026c-2.121.479-1.965 2.06-2.224 4.185-.232 1.902-.483 3.713-.734 5.61l-9.839 73.656c-.066 1.972 1.494 3.091 3.613 2.743 2.106-.347 1.97-1.98 2.241-4.08.245-1.896.494-3.749.75-5.648l9.089-68.038c.239-1.832.546-3.843.657-5.685.121-1.993-1.512-3.204-3.553-2.743zM420.443 100.479c-1.79.702-1.704 2.33-1.935 4.48-.203 1.896-.464 3.679-.714 5.572-.508 3.835-1.01 7.588-1.522 11.399-1.015 7.561-1.906 15.077-2.97 22.605l-4.533 33.933c-.194 1.459-.741 4.334-.696 5.638.064 1.819 2.083 3.003 4.044 2.323 1.668-.579 1.683-2.413 1.917-4.479 1.479-13.05 3.587-26.397 5.178-39.585 1.336-11.085 3.097-22.668 4.547-33.933.183-1.427.754-4.413.703-5.668-.076-1.864-2.04-3.061-4.019-2.285z" fill="#070705"/><path d="M253.442 160.625l8.273-54.881c-8.738-.509-8.643 4.996-9.384 9.852l-4.995 33.231c-.416 2.809-1.148 5.94.176 8.27.798 1.403 3.452 3.441 5.93 3.528zM268.383 162.921c7.618 1.563 8.579-4.563 9.303-9.331l5.035-33.448c.979-6.454.702-11.306-6.046-12.105l-8.292 54.884zM175.299 258.225c.325 2.909 1.199 6.596 1.704 9.627.538 3.223 1.057 6.494 1.654 9.733.745 4.042 1.463 5.688 6.069 4.523 3.146-.794 5.275-2.408 6.235-5.127 1.478-4.185-.405-15.545-2.251-19.08-3.41-6.533-14.079-5.666-13.411.324zM453.817 246.594c-2.759.822-2.458 4.75-2.61 8.062-.151 3.332-.257 6.584-.483 9.904-.223 3.278-1.208 6.872 1.743 8.278 2.659 1.265 6.213.575 8.246-.862 2.168-1.531 3.236-2.952 3.935-6.551 1.08-5.555 1.823-12.972-2.695-16.943-1.427-1.254-5.582-2.65-8.136-1.888zM113.96 112.609c.307 2.136 1.405 6.913 2.089 8.928.873 2.57 1.495 6.16 2.078 8.852.352 1.622.793 2.82 1.999 3.478 2.911 1.584 8.658-.568 10.373-5.248 1.455-3.973-.282-16.775-6.296-20.04-2.304-1.252-11.168-2.413-10.243 4.03zM306.915 223.652c-2.441.909-2.462 4.777-2.864 7.913-.412 3.226-.747 6.311-1.231 9.502-.483 3.184-1.679 6.802.8 8.371 3.786 2.398 10.817 1.377 13.011-6.35 1.441-5.078 2.844-13.411-1.542-17.156-1.457-1.244-5.503-3.275-8.174-2.28zM387.308 76.474l125.76 16.669.306-2.544-125.643-16.601c-.328.698-.48 1.624-.423 2.476z" fill="#FFD600"/><path d="M345.612 173.99c1.342 1.021 5.859.698 7.933 1.202l-3.927 13.436c-.483 1.576-1.327 3.257-.576 4.403 1.214.209 1.315-.06 1.938-.846.233-.294.321-.467.57-.748l15.358-17.646c.451-.585.892-.941 1.331-1.51.637-.827 3.661-3.398 1.167-3.981l-9.244-.874c.198-1.826 6.656-12.811 6.1-13.928-.515-1.033-14.379-1.84-14.609-1.712-.702.388-6.302 21.049-6.041 22.204zm7.266-20.172l10.886.983c-.482 1.616-3.793 7.958-4.894 10.288-2.312 4.893-2.443 3.997 5.896 4.8l1.814.168c.671.152.508.202.617.277l-15.118 17.307c.484-2.778 4.027-12.169 3.699-14.028-1.279-.771-5.98-.938-7.969-1.061l3.303-12.324c1.685.02 2.517.475 2.327-1.125-.99-.343-1.187-.086-1.86-.576.345-.241-.046-.179.517-.258.117-.016.519.006.651.014.363.025.816.12 1.169.144 1.223.083 1.334-.227 1.104-1.289a14.17 14.17 0 00-1.525-.208c-.139-.011-.664-.045-.755-.067-.732-.172-.363-.088-.623-.304.984-.568 4.353.65 4.882-.14.761-1.137-.758-1.164-1.568-1.234-.923-.08-1.855-.155-2.769-.292l.216-1.075z" fill="#070705"/><path d="M358.867 165.085c1.101-2.331 4.412-8.672 4.894-10.288l-10.887-.984-.215 1.075c.914.138 1.846.213 2.769.293.81.07 2.329.097 1.567 1.233-.529.791-3.897-.428-4.881.141.26.215-.108.131.623.303.091.021.616.056.755.068.542.047 1.094.119 1.525.208.23 1.061.119 1.371-1.104 1.288-.353-.024-.806-.118-1.17-.143-.131-.01-.533-.031-.65-.014-.563.078-.173.016-.518.258.674.489.871.233 1.861.575.19 1.601-.642 1.144-2.327 1.125l-3.303 12.324c1.989.123 6.689.291 7.969 1.062.328 1.859-3.215 11.25-3.699 14.028l15.118-17.307c-.109-.075.055-.126-.616-.277l-1.815-.169c-8.339-.803-8.208.094-5.896-4.799zm-.004 12.026c-.487-1.009.675-1.879 2.09-3.604 1.699-2.072 1.948-2.86 3.217-2.582.248 1.163-.156 1.19-.793 1.949-.481.571-.924 1.142-1.374 1.694-1.311 1.61-2.168 3.056-3.14 2.543z" fill="#FFD600"/><path d="M498.105 320.929c1.68-.18 4.972-2.615 6.12-3.222-1.096-1.638-.925-.685-1.886-3.579-1.326-3.992-3.281-13.623-3.992-18.092-.26-1.638-.617-3.313-.846-4.837-.507-3.369-.986-6.365-1.385-9.767-.381-3.253-1.382-9.225-1.506-12.269l-1.267-12.726c-.26-1.663-.055-3.722-.312-5.372-.441-2.821-.184-9.657-.609-10.543-.725 1.846-.531 18.271-.418 21.428.247 6.913.53 13.7 1.037 20.552.428 5.808 3.187 35.586 5.064 38.427z" fill="#070705"/><path d="M557.911 185.194c-2.299.688-2.072 2.737-2.542 5.266-.411 2.212-2.771 11.61-1.755 13.104 1.007 1.48 4.586 1.434 6.258.57 3.24-1.674 3.864-6.472 4.606-10.91 1.101-6.591-3.849-8.843-6.567-8.03zM633.986 177.775c-1.813 2.011-2.142 7.99-2.796 11.761-.375 2.162-1.306 4.626.408 5.791 2.457 1.67 7.406 1.126 8.973-4.067.567-1.877 1.118-4.181 1.161-6.276.093-4.631-2.858-7.944-7.746-7.209z" fill="#FFD600"/><path d="M141.584 275.504c-.092-2.088-5.022-25.7-5.534-28.115-.977-4.601-2.022-9.17-3.214-13.626-.529-1.977-3.039-12.101-3.69-13.031-1.035.199-2.375.89-3.497.984.074.894 3.802 11.08 4.399 12.872 4.67 14.018 7.09 23.582 10.595 37.505l.941 3.411z" fill="#070705"/><path d="M188.172 138.185c1.623 1.328 5.838 1.394 7.223-.218.259-.606-1.537-13.697-3.518-14.437-1.736-.251-1.973.747-2.365 2.242-.683 2.594-1.814 10.343-1.34 12.413z" fill="#FFD600"/><path d="M414.755 29.414c-2.266.954-1.904 4.247 1.007 4.826 2.331.465 10.414 2.279 9.281-2.264-.276-1.11-1.201-1.648-2.413-1.952-1.42-.358-6.768-1.075-7.875-.61zM454.325 25.045c-1.909.737-2.37 4.16 1.044 4.802 2.391.448 10.275 2.349 9.201-2.22-.778-3.308-10.084-2.645-10.245-2.582zM469.307 27.074c-2.538 1.06-2.099 4.176.904 4.748 1.517.288 6.66 1.138 7.87.61 2.29-1 1.927-4.247-.99-4.826-1.631-.323-6.488-1.073-7.784-.532zM459.701 35.382c-1.103.386-2.025 1.176-1.626 2.87.75 3.183 10.147 2.575 10.208 2.548 2.02-.9 2.334-4.055-.71-4.8-1.475-.36-6.571-1.072-7.872-.618zM439.332 23.142c-.953.556-1.671 1.315-1.336 2.85.267 1.222 1.113 1.628 2.488 1.88 1.709.315 6.363 1.042 7.799.563 1.115-.373 1.606-1.35 1.316-2.853-.249-1.29-1.089-1.72-2.437-1.961-1.548-.276-6.74-1.115-7.83-.479zM444.732 33.361c-2.108.691-2.4 4.211.731 4.829 1.407.276 6.858 1.072 7.941.62.988-.414 1.688-1.415 1.482-2.734-.197-1.252-1.13-1.728-2.357-2.059-1.366-.369-6.657-1.029-7.797-.656zM474.524 37.336c-.993.469-1.839 1.226-1.46 2.826.305 1.294.938 1.73 2.354 1.979 1.469.258 6.716 1.109 7.798.678 2.201-.878 2.118-4.313-.795-4.82-1.547-.269-6.745-1.207-7.897-.663zM429.72 31.445c-.922.452-1.771 1.313-1.457 2.79.255 1.201 1.131 1.715 2.368 1.966 1.58.32 6.574 1.051 7.891.62 2.139-.7 2.112-4.25-.994-4.828-1.502-.278-6.732-1.076-7.808-.548zM489.455 39.353c-2.412 1.072-2.293 4.104.834 4.766 1.407.298 6.787 1.024 7.945.596 2.028-.751 2.1-4.298-1.067-4.773-1.643-.247-6.506-1.126-7.712-.59z" fill="#070705"/><path d="M598.584 198.076c.766-.811.508-3.002.508-4.129 0-2.005.252-4.649-.666-6.092l-1.17-.072c-1.225 1.893-2.063 4.313-2.71 6.66-.39 1.415-1.151 2.754.016 3.369.97.511 3.098 1.017 4.022.264z" fill="#FFD600"/><path d="M358.864 177.108c.971.513 1.829-.934 3.14-2.544.45-.552.892-1.122 1.373-1.694.637-.758 1.042-.786.793-1.949-1.269-.278-1.518.51-3.217 2.583-1.415 1.724-2.576 2.594-2.089 3.604z" fill="#070705"/><path d="M719.963 170.114h.219l-.182-.255-.037.255z" fill="#6D6E6E"/></g></symbol><view id="icon__arrow_left-view" viewBox="0 0 32 32"/>
<view id="icon__arrow_right-view" viewBox="0 32 32 32"/>

<use xlink:href="#icon__arrow_left" style="fill:#000000" width="32" height="32" x="0" y="0" id="arrow_left"/>
<use xlink:href="#icon__arrow_right" style="fill:#000000" width="32" height="32" x="0" y="32" id="arrow_right"/></svg>